<svg width="375" height="234" viewBox="0 0 375 234" fill="none" xmlns="http://www.w3.org/2000/svg">
<path d="M87.8432 61.0221L72.8465 46.4753C72.5448 46.1811 72.1282 46 71.6665 46H19.9998C15.4048 46 11.6665 49.6262 11.6665 54.0833V134.917C11.6665 139.374 15.4048 143 19.9998 143H79.9998C84.5948 143 88.3332 139.374 88.3332 134.917V62.1667C88.3332 61.7189 88.1465 61.3147 87.8432 61.0221ZM73.3332 51.5193L82.6432 60.55H73.3332V51.5193ZM84.9998 134.917C84.9998 137.591 82.7565 139.767 79.9998 139.767H19.9998C17.2432 139.767 14.9998 137.591 14.9998 134.917V54.0833C14.9998 51.4094 17.2432 49.2333 19.9998 49.2333H69.9998V62.1667C69.9998 63.0607 70.7465 63.7833 71.6665 63.7833H84.9998V134.917Z" fill="white"/>
<path d="M26.6667 68.6333C22.99 68.6333 20 71.5336 20 75.1C20 78.6664 22.99 81.5667 26.6667 81.5667C30.3433 81.5667 33.3333 78.6664 33.3333 75.1C33.3333 71.5336 30.3433 68.6333 26.6667 68.6333ZM26.6667 78.3333C24.8283 78.3333 23.3333 76.8832 23.3333 75.1C23.3333 73.3168 24.8283 71.8667 26.6667 71.8667C28.505 71.8667 30 73.3168 30 75.1C30 76.8832 28.505 78.3333 26.6667 78.3333Z" fill="white"/>
<path d="M26.6667 86.4167C22.99 86.4167 20 89.317 20 92.8833C20 96.4497 22.99 99.35 26.6667 99.35C30.3433 99.35 33.3333 96.4497 33.3333 92.8833C33.3333 89.317 30.3433 86.4167 26.6667 86.4167ZM26.6667 96.1167C24.8283 96.1167 23.3333 94.6665 23.3333 92.8833C23.3333 91.1001 24.8283 89.65 26.6667 89.65C28.505 89.65 30 91.1001 30 92.8833C30 94.6665 28.505 96.1167 26.6667 96.1167Z" fill="white"/>
<path d="M26.6667 104.2C22.99 104.2 20 107.1 20 110.667C20 114.233 22.99 117.133 26.6667 117.133C30.3433 117.133 33.3333 114.233 33.3333 110.667C33.3333 107.1 30.3433 104.2 26.6667 104.2ZM26.6667 113.9C24.8283 113.9 23.3333 112.45 23.3333 110.667C23.3333 108.883 24.8283 107.433 26.6667 107.433C28.505 107.433 30 108.883 30 110.667C30 112.45 28.505 113.9 26.6667 113.9Z" fill="white"/>
<path d="M26.6667 121.983C22.99 121.983 20 124.884 20 128.45C20 132.016 22.99 134.917 26.6667 134.917C30.3433 134.917 33.3333 132.016 33.3333 128.45C33.3333 124.884 30.3433 121.983 26.6667 121.983ZM26.6667 131.683C24.8283 131.683 23.3333 130.233 23.3333 128.45C23.3333 126.667 24.8283 125.217 26.6667 125.217C28.505 125.217 30 126.667 30 128.45C30 130.233 28.505 131.683 26.6667 131.683Z" fill="white"/>
<path d="M79.9998 76.7167H36.6665V79.95H79.9998V76.7167Z" fill="white"/>
<path d="M61.6668 54.0833H38.3335V57.3167H61.6668V54.0833Z" fill="white"/>
<path d="M66.6668 60.55H33.3335V63.7833H66.6668V60.55Z" fill="white"/>
<path d="M79.9998 94.5H36.6665V97.7333H79.9998V94.5Z" fill="white"/>
<path d="M79.9998 112.283H36.6665V115.517H79.9998V112.283Z" fill="white"/>
<path d="M79.9998 130.067H36.6665V133.3H79.9998V130.067Z" fill="white"/>
<path d="M53.3333 70.25H50V73.4833H53.3333V70.25Z" fill="white"/>
<path d="M46.6668 70.25H43.3335V73.4833H46.6668V70.25Z" fill="white"/>
<path d="M39.9998 70.25H36.6665V73.4833H39.9998V70.25Z" fill="white"/>
<g clip-path="url(#clip0_421_259)">
<path d="M154.667 86.6667C148.235 86.6667 143 91.9017 143 98.3333C143 99.255 143.745 100 144.667 100H164.667C165.588 100 166.333 99.255 166.333 98.3333C166.333 91.9017 161.098 86.6667 154.667 86.6667ZM146.502 96.6667C147.165 93.4083 149.742 90.8483 153 90.1833V93.3333H156.333V90.1833C159.592 90.85 162.168 93.4083 162.832 96.6667H146.502Z" fill="white"/>
<path d="M241.333 71.6667H238.41C238.318 71.435 238.223 71.205 238.12 70.9733L240.188 68.905C240.84 68.2533 240.84 67.2 240.188 66.5483L233.118 59.4783C232.773 59.1333 232.318 58.9833 231.867 59.005C234.508 57.6033 236.333 54.8583 236.333 51.6667V8.33333C236.333 3.73833 232.595 0 228 0H151.333C146.738 0 143 3.73833 143 8.33333V51.6667C143 56.2617 146.738 60 151.333 60H173.083L166.787 71.6667H166.333H163.833C160.617 71.6667 158 74.2833 158 77.5C158 80.7167 160.617 83.3333 163.833 83.3333H199.667C199.667 84.255 200.412 85 201.333 85H204.257C204.348 85.2317 204.443 85.4617 204.547 85.6933L202.478 87.7617C201.827 88.4133 201.827 89.4667 202.478 90.1183L209.548 97.1883C210.2 97.84 211.253 97.84 211.905 97.1883L213.973 95.12C214.205 95.2233 214.435 95.3183 214.667 95.41V98.3333C214.667 99.255 215.412 100 216.333 100H226.333C227.255 100 228 99.255 228 98.3333V95.41C228.232 95.3183 228.462 95.2233 228.693 95.12L230.762 97.1883C231.413 97.84 232.467 97.84 233.118 97.1883L240.188 90.1183C240.84 89.4667 240.84 88.4133 240.188 87.7617L238.12 85.6933C238.223 85.4617 238.318 85.2317 238.41 85H241.333C242.255 85 243 84.255 243 83.3333V73.3333C243 72.4117 242.255 71.6667 241.333 71.6667ZM146.333 8.33333C146.333 5.57667 148.577 3.33333 151.333 3.33333H228C230.757 3.33333 233 5.57667 233 8.33333V43.3333H146.333V8.33333ZM151.333 56.6667C148.577 56.6667 146.333 54.4233 146.333 51.6667V46.6667H233V51.6667C233 54.4233 230.757 56.6667 228 56.6667H226.333H216.333H203.457H175.877H151.333ZM230.74 59.5L228.693 61.5467C228.462 61.4433 228.232 61.3483 228 61.2567V60C228.965 60 229.877 59.8033 230.74 59.5ZM214.667 60V61.2567C214.435 61.3483 214.205 61.4433 213.973 61.5467L212.427 60H214.667ZM209.025 60L207.588 61.4367L206.61 60H209.025ZM199.667 80H163.833C162.455 80 161.333 78.8783 161.333 77.5C161.333 76.1217 162.455 75 163.833 75H166.333H167.78H199.667V80ZM170.574 71.665L176.87 60H202.577L205.19 63.835L202.478 66.5467C201.827 67.1983 201.827 68.2517 202.478 68.9033L204.547 70.9717C204.443 71.2033 204.348 71.4333 204.257 71.665H201.333H170.574ZM239.667 81.6667H237.235C236.507 81.6667 235.865 82.1383 235.645 82.8317C235.392 83.6367 235.05 84.4567 234.628 85.2633C234.292 85.91 234.413 86.6983 234.928 87.2133L236.655 88.94L231.942 93.6533L230.215 91.9267C229.698 91.4117 228.912 91.2917 228.265 91.6267C227.458 92.0483 226.638 92.39 225.833 92.6433C225.138 92.865 224.667 93.5067 224.667 94.235V96.6667H218V94.235C218 93.5067 217.528 92.865 216.835 92.645C216.03 92.3917 215.21 92.05 214.403 91.6283C213.757 91.2933 212.968 91.4133 212.453 91.9283L210.727 93.655L206.013 88.9417L207.74 87.215C208.255 86.7 208.377 85.9117 208.04 85.265C207.618 84.4583 207.277 83.6383 207.023 82.8333C206.802 82.1383 206.16 81.6667 205.432 81.6667H203V75H205.432C206.16 75 206.802 74.5283 207.022 73.835C207.275 73.03 207.617 72.21 208.038 71.4033C208.375 70.7567 208.253 69.9683 207.738 69.4533L206.012 67.7267L210.725 63.0133L212.452 64.74C212.967 65.2567 213.755 65.3767 214.402 65.04C215.208 64.6183 216.028 64.2767 216.833 64.0233C217.528 63.8017 218 63.16 218 62.4317V60H224.667V62.4317C224.667 63.16 225.138 63.8017 225.832 64.0217C226.637 64.275 227.457 64.6167 228.263 65.0383C228.91 65.375 229.697 65.255 230.213 64.7383L231.94 63.0117L236.653 67.725L234.927 69.4517C234.412 69.9667 234.29 70.755 234.627 71.4017C235.048 72.2083 235.39 73.0283 235.643 73.8333C235.865 74.5283 236.507 75 237.235 75H239.667V81.6667Z" fill="white"/>
<path d="M221.333 68.3333C215.818 68.3333 211.333 72.8183 211.333 78.3333C211.333 83.8483 215.818 88.3333 221.333 88.3333C226.848 88.3333 231.333 83.8483 231.333 78.3333C231.333 72.8183 226.848 68.3333 221.333 68.3333ZM221.333 85C217.657 85 214.667 82.01 214.667 78.3333C214.667 74.6567 217.657 71.6667 221.333 71.6667C225.01 71.6667 228 74.6567 228 78.3333C228 82.01 225.01 85 221.333 85Z" fill="white"/>
<path d="M175.845 12.845L173.488 10.4883L161.822 22.155C161.17 22.8067 161.17 23.86 161.822 24.5117L173.488 36.1783L175.845 33.8217L165.357 23.3333L175.845 12.845Z" fill="white"/>
<path d="M212.512 22.155L200.845 10.4883L198.488 12.845L208.977 23.3333L198.488 33.8217L200.845 36.1783L212.512 24.5117C213.163 23.86 213.163 22.8067 212.512 22.155Z" fill="white"/>
<path d="M193.17 5.93057L178.174 35.9218L181.156 37.4125L196.151 7.42123L193.17 5.93057Z" fill="white"/>
<path d="M211.333 33.3333H208V36.6667H211.333V33.3333Z" fill="white"/>
<path d="M218 33.3333H214.667V36.6667H218V33.3333Z" fill="white"/>
<path d="M224.667 33.3333H221.333V36.6667H224.667V33.3333Z" fill="white"/>
</g>
<path fill-rule="evenodd" clip-rule="evenodd" d="M303.125 201.188V219.938C303.125 222.527 305.223 224.625 307.812 224.625C315.625 224.625 335.938 224.625 343.75 224.625C346.339 224.625 348.438 222.527 348.438 219.938C348.438 216.705 348.438 212.125 348.438 212.125C348.438 211.263 347.738 210.562 346.875 210.562C346.012 210.562 345.312 211.263 345.312 212.125V219.938C345.312 220.8 344.613 221.5 343.75 221.5C335.938 221.5 315.625 221.5 307.812 221.5C306.95 221.5 306.25 220.8 306.25 219.938V201.188C306.25 200.325 305.55 199.625 304.688 199.625C303.825 199.625 303.125 200.325 303.125 201.188ZM303.125 173.059V191.031C303.125 191.894 303.825 192.594 304.688 192.594C305.55 192.594 306.25 191.894 306.25 191.031V179.314C307.555 180.294 309.177 180.875 310.934 180.875H343.75C344.164 180.875 344.562 181.039 344.855 181.333C345.148 181.625 345.312 182.023 345.312 182.438V205.875C345.312 206.738 346.012 207.438 346.875 207.438C347.738 207.438 348.438 206.738 348.438 205.875V197.6C358.869 197.525 367.584 190.189 369.78 180.4C369.969 179.558 369.438 178.722 368.597 178.533C367.755 178.345 366.919 178.875 366.73 179.716C364.848 188.109 357.378 194.4 348.438 194.473V182.438C348.438 181.194 347.944 180.002 347.064 179.123C346.186 178.244 344.994 177.75 343.75 177.75H343.661V166.812C343.661 165.95 342.963 165.25 342.098 165.25H310.934C306.622 165.25 303.125 168.747 303.125 173.059ZM342.188 190.25C342.188 187.661 340.089 185.562 337.5 185.562H314.062C311.473 185.562 309.375 187.661 309.375 190.25C309.375 191.72 309.375 193.467 309.375 194.938C309.375 197.527 311.473 199.625 314.062 199.625H337.5C340.089 199.625 342.188 197.527 342.188 194.938V190.25ZM303.125 194.156H296.291C288.861 194.156 282.812 188.427 282.812 180.997C282.812 173.612 288.763 167.608 296.125 167.519C296.872 167.509 297.509 166.972 297.644 166.237C299.675 155.091 309.447 146.63 321.177 146.63C329.32 146.63 336.519 150.706 340.839 156.928C341.23 157.491 341.941 157.733 342.592 157.527C344.387 156.961 346.297 156.656 348.278 156.656C357.428 156.656 365.07 163.169 366.814 171.809C366.984 172.655 367.809 173.202 368.655 173.031C369.5 172.861 370.048 172.036 369.877 171.191C367.845 161.123 358.942 153.531 348.278 153.531C346.367 153.531 344.512 153.775 342.744 154.234C337.805 147.717 329.98 143.505 321.177 143.505C308.344 143.505 297.588 152.461 294.82 164.458C286.345 165.202 279.688 172.328 279.688 180.997C279.688 190.169 287.119 197.281 296.291 197.281H303.125C303.987 197.281 304.688 196.581 304.688 195.719C304.688 194.856 303.987 194.156 303.125 194.156ZM339.062 190.25V194.938C339.062 195.8 338.362 196.5 337.5 196.5H314.062C313.2 196.5 312.5 195.8 312.5 194.938V190.25C312.5 189.388 313.2 188.688 314.062 188.688H337.5C338.362 188.688 339.062 189.388 339.062 190.25ZM340.536 171.5V168.375H310.934C308.347 168.375 306.25 170.472 306.25 173.059V173.066C306.25 175.653 308.347 177.75 310.934 177.75H340.536V174.625H320.312C319.45 174.625 318.75 173.925 318.75 173.062C318.75 172.2 319.45 171.5 320.312 171.5H340.536ZM306.062 162.867C306.062 162.867 312.508 150.972 326.197 154.269C327.034 154.47 327.88 153.955 328.081 153.116C328.283 152.278 327.767 151.433 326.928 151.231C310.856 147.361 303.313 161.383 303.313 161.383C302.903 162.142 303.186 163.091 303.945 163.5C304.705 163.909 305.653 163.627 306.062 162.867Z" fill="white"/>
<defs>
<clipPath id="clip0_421_259">
<rect width="100" height="100" fill="white" transform="translate(143)"/>
</clipPath>
</defs>
</svg>
